<?xml version="1.0" encoding="utf-8"?>
<svg width="620.0787353515625" height="513.779541015625" xmlns="http://www.w3.org/2000/svg">
  <defs id="defs4">
    <marker id="RazorWire" refX="0" refY="0" orient="auto">
       style="overflow:visible"&gt;
            <path id="path2780" transform="scale(0.8,0.8)" style="fill:gray;fill-opacity:1;fill-rule:evenodd;stroke:black;stroke-width:0.1pt" d=" M 0.022727275267243385 -0.7400901317596436 C 0.022727275267243385 -0.7400901317596436 0.022727275267243385 0.697409987449646 0.022727275267243385 0.697409987449646 C 0.022727275267243385 0.697409987449646 -7.758522987365723 3.0099098682403564 -7.758522987365723 3.0099098682403564 C -7.758522987365723 3.0099098682403564 10.678977012634277 3.0099098682403564 10.678977012634277 3.0099098682403564 C 10.678977012634277 3.0099098682403564 3.4914772510528564 0.697409987449646 3.4914772510528564 0.697409987449646 C 3.4914772510528564 0.697409987449646 3.4914772510528564 -0.7400901317596436 3.4914772510528564 -0.7400901317596436 C 3.4914772510528564 -0.7400901317596436 10.741477012634277 -2.8963401317596436 10.741477012634277 -2.8963401317596436 C 10.741477012634277 -2.8963401317596436 -7.7272725105285645 -2.8963401317596436 -7.7272725105285645 -2.8963401317596436 C -7.7272725105285645 -2.8963401317596436 0.022727275267243385 -0.7400901317596436 0.022727275267243385 -0.7400901317596436 Z"/>
    </marker>
    <marker orient="auto" refY="0" refX="0" id="Legs" style="overflow:visible">
      <g id="g2803" transform="scale(-0.7,-0.7)">
        <g id="g2805" transform="matrix(0,-1,-1,0,20.70862,21.31391)">
          <path id="path2807" d=" M 21.221250534057617 20.67535972595215 C 14.3110990524292 25.396516799926758 18.766725540161133 27.282203674316406 15.380179405212402 34.118595123291016" style="fill:none;fill-opacity:0.75;fill-rule:evenodd;stroke:black;stroke-width:1pt;marker-start:none;marker-end:none"/>
          <path id="path2809" d=" M 21.398109436035156 20.548120498657227 C 20.037601470947266 28.89564323425293 24.934181213378906 29.31805992126465 25.90315055847168 34.373077392578125" style="fill:none;fill-opacity:0.75;fill-rule:evenodd;stroke:black;stroke-width:1pt;marker-start:none;marker-end:none"/>
        </g>
        <path id="path2811" d=" M -14.090069770812988 -6.731871604919434 C -14.090069770812988 -6.731871604919434 -15.012237548828125 -2.688488483428955 -15.012237548828125 -2.688488483428955 C -15.012237548828125 -2.688488483428955 -11.049487113952637 -3.9115586280822754 -11.049487113952637 -3.9115586280822754 C -11.049487113952637 -3.9115586280822754 -14.090069770812988 -6.731871604919434 -14.090069770812988 -6.731871604919434 Z" style="fill:#030300;fill-rule:evenodd;stroke-width:1pt;marker-end:none"/>
        <path id="path2813" d=" M -15.215679168701172 4.556753158569336 C -15.215679168701172 4.556753158569336 -13.341551780700684 8.256366729736328 -13.341551780700684 8.256366729736328 C -13.341551780700684 8.256366729736328 -11.074678421020508 4.783511638641357 -11.074678421020508 4.783511638641357 C -11.074678421020508 4.783511638641357 -15.215679168701172 4.556753158569336 -15.215679168701172 4.556753158569336 Z" style="fill:#030300;fill-rule:evenodd;stroke-width:1pt;marker-end:none"/>
      </g>
    </marker>
    <marker orient="auto" refY="0" refX="0" id="Torso" style="overflow:visible">
      <g id="g2786" transform="scale(0.7,0.7)">
        <path id="path2788" d=" M -4.779228210449219 -3.239542007446289 C -2.428853988647461 -2.873602867126465 0.5210391283035278 -1.3019943237304688 0.2579272389411926 0.38794347643852234 C -0.005187791772186756 2.0778818130493164 -2.212674140930176 2.6176538467407227 -4.563046932220459 2.2517168521881104 C -6.913422107696533 1.8857768774032593 -8.521035194396973 0.75201416015625 -8.257922172546387 -0.9379234313964844 C -7.994809150695801 -2.627861499786377 -7.129604339599609 -3.6054813861846924 -4.779228210449219 -3.239542007446289 Z" style="fill:none;fill-opacity:0.75;fill-rule:evenodd;stroke:black;stroke-width:1.25;marker-start:none;marker-mid:none;marker-end:none"/>
        <path id="path2790" d=" M 4.459878921508789 0.08866574615240097 C -2.556457042694092 -4.378332138061523 5.224876880645752 -3.9061806201934814 -0.8482958078384399 -8.719733238220215" style="fill:none;fill-opacity:0.75;fill-rule:evenodd;stroke:black;stroke-width:1pt;marker-end:none"/>
        <path id="path2792" d=" M 4.929872035980225 0.05752074345946312 C -1.3872730731964111 1.7494689226150513 1.8027578592300415 5.478208065032959 -4.944873332977295 7.546272277832031" style="fill:none;fill-opacity:0.75;fill-rule:evenodd;stroke:black;stroke-width:1pt;marker-start:none;marker-end:none"/>
        <rect id="rect2794" transform="matrix(0.527536,-0.849533,0.887668,0.460484,0,0)" y="-1.7408575" x="-10.391706" height="2.7608147" width="2.6366582" style="fill-rule:evenodd;stroke-width:1pt;marker-end:none"/>
        <rect id="rect2796" transform="matrix(0.671205,-0.741272,0.790802,0.612072,0,0)" y="-7.9629307" x="4.9587269" height="2.8614161" width="2.7327356" style="fill-rule:evenodd;stroke-width:1pt;marker-end:none"/>
        <path id="path2798" transform="matrix(0,-1.109517,1.109517,0,25.96648,19.71619)" d=" M 16.779951095581055 -28.68504524230957 C 16.780414250008413 -28.21753242019032 16.274606245837873 -27.924835526847755 15.86949668807397 -28.15819083440741 C 15.68111212013893 -28.2667060198615 15.565101777262766 -28.46764182806983 15.565317153930664 -28.68504524230957 C 15.564853999503306 -29.15255806442882 16.070662003673846 -29.445254957771386 16.47577156143775 -29.21189965021173 C 16.66415612937279 -29.103384464757642 16.780166472248954 -28.90244865654931 16.779951095581055 -28.68504524230957 Z" style="fill:red;fill-opacity:0.75;fill-rule:evenodd;stroke:black;stroke-width:1pt;marker-start:none;marker-end:none"/>
        <path id="path2800" transform="matrix(0,-1.109517,1.109517,0,26.8245,16.99126)" d=" M 16.779951095581055 -28.68504524230957 C 16.780414250008413 -28.21753242019032 16.274606245837873 -27.924835526847755 15.86949668807397 -28.15819083440741 C 15.68111212013893 -28.2667060198615 15.565101777262766 -28.46764182806983 15.565317153930664 -28.68504524230957 C 15.564853999503306 -29.15255806442882 16.070662003673846 -29.445254957771386 16.47577156143775 -29.21189965021173 C 16.66415612937279 -29.103384464757642 16.780166472248954 -28.90244865654931 16.779951095581055 -28.68504524230957 Z" style="fill:red;fill-opacity:0.75;fill-rule:evenodd;stroke:black;stroke-width:1pt;marker-start:none;marker-end:none"/>
      </g>
    </marker>
    <marker orient="auto" refY="0" refX="0" id="Club" style="overflow:visible">
      <path id="path2783" d=" M -1.5971367359161377 -7.097763538360596 C -3.4863874912261963 -7.097763538360596 -5.0235185623168945 -5.560632228851318 -5.0235185623168945 -3.6713812351226807 C -5.0235185623168945 -3.0147016048431396 -4.785165786743164 -2.444455623626709 -4.464109420776367 -1.923227071762085 C -4.502861022949219 -1.891115665435791 -4.543781280517578 -1.86476469039917 -4.580653190612793 -1.8299920558929443 C -5.203076362609863 -2.6849849224090576 -6.170051574707031 -3.2751331329345703 -7.307773113250732 -3.2751331329345703 C -9.19702434539795 -3.2751331329345703 -10.73415470123291 -1.7380015850067139 -10.73415470123291 0.15124915540218353 C -10.73415470123291 2.0404999256134033 -9.19702434539795 3.5776312351226807 -7.307773113250732 3.5776312351226807 C -6.314326763153076 3.5776312351226807 -5.439154148101807 3.1355702877044678 -4.813740253448486 2.458812713623047 C -4.938427448272705 2.813704013824463 -5.0235185623168945 3.180299997329712 -5.0235185623168945 3.5776312351226807 C -5.0235185623168945 5.46688175201416 -3.4863874912261963 7.004013538360596 -1.5971367359161377 7.004013538360596 C 0.2921139597892761 7.004013538360596 1.8292453289031982 5.46688175201416 1.8292453289031982 3.5776312351226807 C 1.8292453289031982 2.7842354774475098 1.5136867761611938 2.0838027000427246 1.0600576400756836 1.503154993057251 C 2.415271759033203 1.7663867473602295 3.7718374729156494 2.2973711490631104 4.766144275665283 3.8340272903442383 C 4.027946472167969 3.0958290100097656 3.554090738296509 1.7534117698669434 3.554090738296509 -0.05852936953306198 C 3.554090738296509 -0.05852936953306198 2.924755573272705 -0.10514681041240692 2.924755573272705 -0.10514681041240692 C 2.924755573272705 -0.10514681041240692 3.5074732303619385 -0.12845554947853088 3.5074732303619385 -0.12845554947853088 C 3.5074732303619385 -1.9403966665267944 3.958019971847534 -3.282813787460327 4.696218490600586 -4.021012306213379 C 3.7371277809143066 -2.53878116607666 2.4390549659729004 -1.9946496486663818 1.1299837827682495 -1.7134485244750977 C 1.5341801643371582 -2.275357723236084 1.8292453289031982 -2.9268555641174316 1.8292453289031982 -3.6713812351226807 C 1.8292453289031982 -5.56063175201416 0.2921139597892761 -7.097763538360596 -1.5971367359161377 -7.097763538360596 Z" style="fill-rule:evenodd;stroke:black;stroke-width:0.74587913pt;marker-start:none" transform="scale(0.6,0.6)"/>
    </marker>
    <radialGradient id="gradient-25" gradientUnits="userSpaceOnUse" cx="238.19357299804688" cy="237.11263275146484" r="15.215423583984375">
      <stop style="stop-color: rgb(187, 218, 85);" offset="0"/>
      <stop style="stop-color: rgb(135, 165, 36);" offset="1"/>
    </radialGradient>
    <linearGradient id="gradient-1" gradientUnits="userSpaceOnUse" x1="285.853" y1="110.318" x2="285.853" y2="313.19">
      <stop style="stop-color: rgb(34, 158, 18);" offset="0"/>
      <stop style="stop-color: rgb(14, 66, 7);" offset="1"/>
    </linearGradient>
    <linearGradient id="gradient-2" gradientUnits="userSpaceOnUse" x1="282.426" y1="108.655" x2="282.426" y2="307.369">
      <stop style="stop-color: rgb(34, 158, 18);" offset="0"/>
      <stop style="stop-color: rgb(14, 66, 7);" offset="1"/>
    </linearGradient>
    <linearGradient id="gradient-3" gradientUnits="userSpaceOnUse" x1="305.707" y1="161.867" x2="305.707" y2="225.057">
      <stop style="stop-color: rgb(34, 158, 18);" offset="0"/>
      <stop style="stop-color: rgb(14, 66, 7);" offset="1"/>
    </linearGradient>
    <linearGradient id="gradient-8" gradientUnits="userSpaceOnUse" x1="256.162" y1="158.541" x2="256.162" y2="190.136">
      <stop style="stop-color: rgb(34, 158, 18);" offset="0"/>
      <stop style="stop-color: rgb(14, 66, 7);" offset="1"/>
    </linearGradient>
    <linearGradient id="gradient-9" gradientUnits="userSpaceOnUse" x1="249.169" y1="210.091" x2="249.169" y2="257.483">
      <stop style="stop-color: rgb(34, 158, 18);" offset="0"/>
      <stop style="stop-color: rgb(14, 66, 7);" offset="1"/>
    </linearGradient>
    <linearGradient id="gradient-11" gradientUnits="userSpaceOnUse" x1="285.853" y1="110.318" x2="285.853" y2="313.19">
      <stop style="stop-color: rgb(34, 158, 18);" offset="0"/>
      <stop style="stop-color: rgb(14, 66, 7);" offset="1"/>
    </linearGradient>
    <linearGradient id="gradient-12" gradientUnits="userSpaceOnUse" x1="282.426" y1="108.655" x2="282.426" y2="307.369">
      <stop style="stop-color: rgb(34, 158, 18);" offset="0"/>
      <stop style="stop-color: rgb(14, 66, 7);" offset="1"/>
    </linearGradient>
    <linearGradient id="gradient-13" gradientUnits="userSpaceOnUse" x1="305.707" y1="161.867" x2="305.707" y2="225.057">
      <stop style="stop-color: rgb(34, 158, 18);" offset="0"/>
      <stop style="stop-color: rgb(14, 66, 7);" offset="1"/>
    </linearGradient>
    <linearGradient id="gradient-14" gradientUnits="userSpaceOnUse" x1="256.162" y1="158.541" x2="256.162" y2="190.136">
      <stop style="stop-color: rgb(34, 158, 18);" offset="0"/>
      <stop style="stop-color: rgb(14, 66, 7);" offset="1"/>
    </linearGradient>
    <linearGradient id="gradient-15" gradientUnits="userSpaceOnUse" x1="249.169" y1="210.091" x2="249.169" y2="257.483">
      <stop style="stop-color: rgb(34, 158, 18);" offset="0"/>
      <stop style="stop-color: rgb(14, 66, 7);" offset="1"/>
    </linearGradient>
    <linearGradient id="gradient-16" gradientUnits="userSpaceOnUse" x1="285.853" y1="110.318" x2="285.853" y2="313.19">
      <stop style="stop-color: rgb(34, 158, 18);" offset="0"/>
      <stop style="stop-color: rgb(14, 66, 7);" offset="1"/>
    </linearGradient>
    <linearGradient id="gradient-17" gradientUnits="userSpaceOnUse" x1="282.426" y1="108.655" x2="282.426" y2="307.369">
      <stop style="stop-color: rgb(34, 158, 18);" offset="0"/>
      <stop style="stop-color: rgb(14, 66, 7);" offset="1"/>
    </linearGradient>
    <linearGradient id="gradient-18" gradientUnits="userSpaceOnUse" x1="305.707" y1="161.867" x2="305.707" y2="225.057">
      <stop style="stop-color: rgb(34, 158, 18);" offset="0"/>
      <stop style="stop-color: rgb(14, 66, 7);" offset="1"/>
    </linearGradient>
    <linearGradient id="gradient-19" gradientUnits="userSpaceOnUse" x1="256.162" y1="158.541" x2="256.162" y2="190.136">
      <stop style="stop-color: rgb(34, 158, 18);" offset="0"/>
      <stop style="stop-color: rgb(14, 66, 7);" offset="1"/>
    </linearGradient>
    <linearGradient id="gradient-20" gradientUnits="userSpaceOnUse" x1="249.169" y1="210.091" x2="249.169" y2="257.483">
      <stop style="stop-color: rgb(34, 158, 18);" offset="0"/>
      <stop style="stop-color: rgb(14, 66, 7);" offset="1"/>
    </linearGradient>
    <linearGradient id="gradient-4" gradientUnits="userSpaceOnUse" x1="285.8529968261719" y1="110.31800079345703" x2="285.8529968261719" y2="313.1900100708008">
      <stop style="stop-color: rgb(34, 158, 18);" offset="0"/>
      <stop style="stop-color: rgb(14, 66, 7);" offset="1"/>
    </linearGradient>
    <linearGradient id="gradient-5" gradientUnits="userSpaceOnUse" x1="282.4262390136719" y1="108.65487670898438" x2="282.4262390136719" y2="307.3694763183594">
      <stop style="stop-color: rgb(34, 158, 18);" offset="0"/>
      <stop style="stop-color: rgb(14, 66, 7);" offset="1"/>
    </linearGradient>
    <linearGradient id="gradient-6" gradientUnits="userSpaceOnUse" x1="305.70660400390625" y1="161.86715698242188" x2="305.70660400390625" y2="225.05673217773438">
      <stop style="stop-color: rgb(34, 158, 18);" offset="0"/>
      <stop style="stop-color: rgb(14, 66, 7);" offset="1"/>
    </linearGradient>
    <linearGradient id="gradient-7" gradientUnits="userSpaceOnUse" x1="256.1617202758789" y1="158.5413818359375" x2="256.1617202758789" y2="190.13616943359375">
      <stop style="stop-color: rgb(34, 158, 18);" offset="0"/>
      <stop style="stop-color: rgb(14, 66, 7);" offset="1"/>
    </linearGradient>
    <linearGradient id="gradient-10" gradientUnits="userSpaceOnUse" x1="249.16857147216797" y1="210.0907745361328" x2="249.16857147216797" y2="257.48297119140625">
      <stop style="stop-color: rgb(34, 158, 18);" offset="0"/>
      <stop style="stop-color: rgb(14, 66, 7);" offset="1"/>
    </linearGradient>
    <linearGradient id="gradient-21" gradientUnits="userSpaceOnUse" x1="285.8529968261719" y1="110.31800079345703" x2="285.8529968261719" y2="313.1900100708008">
      <stop style="stop-color: rgb(34, 158, 18);" offset="0"/>
      <stop style="stop-color: rgb(14, 66, 7);" offset="1"/>
    </linearGradient>
    <linearGradient id="gradient-22" gradientUnits="userSpaceOnUse" x1="282.42650604248047" y1="108.65499877929688" x2="282.42650604248047" y2="307.3689880371094">
      <stop style="stop-color: rgb(34, 158, 18);" offset="0"/>
      <stop style="stop-color: rgb(14, 66, 7);" offset="1"/>
    </linearGradient>
    <linearGradient id="gradient-23" gradientUnits="userSpaceOnUse" x1="305.70660400390625" y1="161.86715698242188" x2="305.70660400390625" y2="225.05673217773438">
      <stop style="stop-color: rgb(34, 158, 18);" offset="0"/>
      <stop style="stop-color: rgb(14, 66, 7);" offset="1"/>
    </linearGradient>
    <linearGradient id="gradient-24" gradientUnits="userSpaceOnUse" x1="256.1617202758789" y1="158.5413818359375" x2="256.1617202758789" y2="190.13616943359375">
      <stop style="stop-color: rgb(34, 158, 18);" offset="0"/>
      <stop style="stop-color: rgb(14, 66, 7);" offset="1"/>
    </linearGradient>
    <linearGradient id="gradient-26" gradientUnits="userSpaceOnUse" x1="249.16857147216797" y1="210.0907745361328" x2="249.16857147216797" y2="257.48297119140625">
      <stop style="stop-color: rgb(34, 158, 18);" offset="0"/>
      <stop style="stop-color: rgb(14, 66, 7);" offset="1"/>
    </linearGradient>
    <linearGradient id="gradient-27" gradientUnits="userSpaceOnUse" x1="285.8529968261719" y1="110.31800079345703" x2="285.8529968261719" y2="313.1900100708008">
      <stop style="stop-color: rgb(34, 158, 18);" offset="0"/>
      <stop style="stop-color: rgb(14, 66, 7);" offset="1"/>
    </linearGradient>
    <linearGradient id="gradient-28" gradientUnits="userSpaceOnUse" x1="282.42650604248047" y1="108.65499877929688" x2="282.42650604248047" y2="307.3689880371094">
      <stop style="stop-color: rgb(34, 158, 18);" offset="0"/>
      <stop style="stop-color: rgb(14, 66, 7);" offset="1"/>
    </linearGradient>
    <linearGradient id="gradient-29" gradientUnits="userSpaceOnUse" x1="305.70660400390625" y1="161.86715698242188" x2="305.70660400390625" y2="225.05673217773438">
      <stop style="stop-color: rgb(34, 158, 18);" offset="0"/>
      <stop style="stop-color: rgb(14, 66, 7);" offset="1"/>
    </linearGradient>
    <linearGradient id="gradient-30" gradientUnits="userSpaceOnUse" x1="256.1617202758789" y1="158.5413818359375" x2="256.1617202758789" y2="190.13616943359375">
      <stop style="stop-color: rgb(34, 158, 18);" offset="0"/>
      <stop style="stop-color: rgb(14, 66, 7);" offset="1"/>
    </linearGradient>
    <linearGradient id="gradient-31" gradientUnits="userSpaceOnUse" x1="249.16857147216797" y1="210.0907745361328" x2="249.16857147216797" y2="257.48297119140625">
      <stop style="stop-color: rgb(34, 158, 18);" offset="0"/>
      <stop style="stop-color: rgb(14, 66, 7);" offset="1"/>
    </linearGradient>
    <linearGradient id="gradient-32" gradientUnits="userSpaceOnUse" x1="234.22149658203125" y1="-1.0922999382019043" x2="234.22149658203125" y2="42.49700212478638">
      <stop style="stop-color: rgb(21, 76, 29);" offset="0"/>
      <stop style="stop-color: rgb(0, 0, 0);" offset="1"/>
    </linearGradient>
    <linearGradient id="gradient-33" gradientUnits="userSpaceOnUse" x1="277.32850646972656" y1="0.7390000224113464" x2="277.32850646972656" y2="41.79200142621994">
      <stop style="stop-color: rgb(21, 76, 29);" offset="0"/>
      <stop style="stop-color: rgb(0, 0, 0);" offset="1"/>
    </linearGradient>
    <linearGradient id="gradient-34" gradientUnits="userSpaceOnUse" x1="26.023000240325928" y1="0.7390000224113464" x2="26.023000240325928" y2="41.79200142621994">
      <stop style="stop-color: rgb(21, 76, 29);" offset="0"/>
      <stop style="stop-color: rgb(0, 0, 0);" offset="1"/>
    </linearGradient>
    <linearGradient id="gradient-35" gradientUnits="userSpaceOnUse" x1="234.22149658203125" y1="0.036001235246658325" x2="234.22149658203125" y2="42.49699977040291">
      <stop style="stop-color: rgb(21, 76, 29);" offset="0"/>
      <stop style="stop-color: rgb(0, 0, 0);" offset="1"/>
    </linearGradient>
    <linearGradient id="gradient-36" gradientUnits="userSpaceOnUse" x1="81.4160041809082" y1="0.7390000224113464" x2="81.4160041809082" y2="41.79200142621994">
      <stop style="stop-color: rgb(21, 76, 29);" offset="0"/>
      <stop style="stop-color: rgb(0, 0, 0);" offset="1"/>
    </linearGradient>
    <linearGradient id="gradient-37" gradientUnits="userSpaceOnUse" x1="129.1259994506836" y1="0.7390000224113464" x2="129.1259994506836" y2="41.79200142621994">
      <stop style="stop-color: rgb(21, 76, 29);" offset="0"/>
      <stop style="stop-color: rgb(0, 0, 0);" offset="1"/>
    </linearGradient>
    <linearGradient id="gradient-38" gradientUnits="userSpaceOnUse" x1="129.1259994506836" y1="8.685859680175781" x2="129.1259994506836" y2="41.79199981689453">
      <stop style="stop-color: rgb(21, 76, 29);" offset="0"/>
      <stop style="stop-color: rgb(0, 0, 0);" offset="1"/>
    </linearGradient>
    <linearGradient id="gradient-39" gradientUnits="userSpaceOnUse" x1="129.1259994506836" y1="0.7390000224113464" x2="129.1259994506836" y2="41.79200142621994">
      <stop style="stop-color: rgb(21, 76, 29);" offset="0"/>
      <stop style="stop-color: rgb(0, 0, 0);" offset="1"/>
    </linearGradient>
    <linearGradient id="gradient-40" gradientUnits="userSpaceOnUse" x1="81.4160041809082" y1="0.7390000224113464" x2="81.4160041809082" y2="41.79200142621994">
      <stop style="stop-color: rgb(21, 76, 29);" offset="0"/>
      <stop style="stop-color: rgb(0, 0, 0);" offset="1"/>
    </linearGradient>
    <linearGradient id="gradient-41" gradientUnits="userSpaceOnUse" x1="462.56748962402344" y1="0.7390000224113464" x2="462.56748962402344" y2="41.79200142621994">
      <stop style="stop-color: rgb(21, 76, 29);" offset="0"/>
      <stop style="stop-color: rgb(0, 0, 0);" offset="1"/>
    </linearGradient>
    <linearGradient id="gradient-42" gradientUnits="userSpaceOnUse" x1="81.41600036621094" y1="0.7390000224113464" x2="81.41600036621094" y2="41.79200142621994">
      <stop style="stop-color: rgb(21, 76, 29);" offset="0"/>
      <stop style="stop-color: rgb(0, 0, 0);" offset="1"/>
    </linearGradient>
    <linearGradient id="gradient-43" gradientUnits="userSpaceOnUse" x1="81.41600036621094" y1="0.7390000224113464" x2="81.41600036621094" y2="41.79200142621994">
      <stop style="stop-color: rgb(21, 76, 29);" offset="0"/>
      <stop style="stop-color: rgb(0, 0, 0);" offset="1"/>
    </linearGradient>
    <linearGradient id="gradient-44" gradientUnits="userSpaceOnUse" x1="396.0409164428711" y1="269.0559997558594" x2="396.0409164428711" y2="755.5250244140625">
      <stop style="stop-color: rgb(10, 62, 10);" offset="0"/>
      <stop style="stop-color: rgb(0, 0, 0);" offset="1"/>
    </linearGradient>
    <radialGradient id="gradient-45" gradientUnits="userSpaceOnUse" cx="396.0409164428711" cy="512.2905120849609" r="304.547119140625">
      <stop style="stop-color: rgb(10, 62, 10);" offset="0"/>
      <stop style="stop-color: rgb(0, 0, 0);" offset="1"/>
    </radialGradient>
    <linearGradient id="gradient-46" gradientUnits="userSpaceOnUse" x1="396.0409164428711" y1="269.0559997558594" x2="396.0409164428711" y2="755.5250244140625" spreadMethod="pad">
      <stop style="stop-color: rgb(10, 62, 10);" offset="0"/>
      <stop style="stop-color: rgb(0, 0, 0);" offset="1"/>
    </linearGradient>
    <radialGradient id="gradient-47" gradientUnits="userSpaceOnUse" cx="396.0409164428711" cy="512.2905120849609" r="304.547119140625">
      <stop style="stop-color: rgb(10, 62, 10);" offset="0"/>
      <stop style="stop-color: rgb(0, 0, 0);" offset="1"/>
    </radialGradient>
  </defs>
  <g>
    <g id="layer1" transform="matrix(1, 0, 0, 1, -90.02500152587893, -267.4937133789063)">
      <g id="g3102" transform="translate(4,4)" style="fill:white">
        <path id="path3104" d="M 396.056 269.056 C 396.056 269.056 389.9 273.462 389.9 273.462 C 389.9 273.462 307.587 332.15 307.587 332.15 C 307.587 332.15 267.587 303.619 267.587 303.619 C 267.587 303.619 261.431 299.212 261.431 299.212 C 261.431 299.212 255.275 303.619 255.275 303.619 C 255.275 303.619 179.087 357.931 179.087 357.931 C 179.087 357.931 152.119 377.15 152.119 377.15 C 152.119 377.15 185.244 377.15 185.244 377.15 C 185.244 377.15 197.087 377.15 197.087 377.15 C 197.087 377.15 197.087 410.9 197.087 410.9 C 197.087 410.9 118.463 466.962 118.463 466.962 C 118.463 466.962 91.4938 486.181 91.4938 486.181 C 91.4938 486.181 124.619 486.181 124.619 486.181 C 124.619 486.181 194.025 486.181 194.025 486.181 C 194.025 486.181 194.025 744.931 194.025 744.931 C 194.025 744.931 194.025 755.525 194.025 755.525 C 194.025 755.525 204.619 755.525 204.619 755.525 C 204.619 755.525 587.463 755.525 587.463 755.525 C 587.463 755.525 598.056 755.525 598.056 755.525 C 598.056 755.525 598.056 744.931 598.056 744.931 C 598.056 744.931 598.056 486.181 598.056 486.181 C 598.056 486.181 667.463 486.181 667.463 486.181 C 667.463 486.181 700.588 486.181 700.588 486.181 C 700.588 486.181 673.619 466.962 673.619 466.962 C 673.619 466.962 402.212 273.462 402.212 273.462 C 402.212 273.462 396.056 269.056 396.056 269.056 Z M 396.056 295.087 C 396.056 295.087 634.338 464.994 634.338 464.994 C 634.338 464.994 587.463 464.994 587.463 464.994 C 587.463 464.994 576.869 464.994 576.869 464.994 C 576.869 464.994 576.869 475.587 576.869 475.587 C 576.869 475.587 576.869 481.4 576.869 481.4 C 573.848 478.031 570.26 475.893 566.119 475.025 C 566.119 475.025 530.713 467.837 530.713 467.837 C 530.713 467.837 540.056 479.744 540.056 479.744 C 540.056 479.744 545.431 558.15 545.431 558.15 C 545.431 558.15 530.713 568.619 530.713 568.619 C 530.713 568.619 556.056 565.431 556.056 565.431 C 564.774 564.252 571.712 560.421 576.869 553.962 C 576.869 553.962 564.056 734.337 564.056 734.337 C 564.056 734.337 404.244 734.337 404.244 734.337 C 409.441 732.834 414.48 729.793 419.4 725.181 C 426.7 718.338 432.497 709.212 436.775 697.806 C 438.473 693.244 439.77 688.363 440.619 683.181 C 441.468 678 441.869 672.602 441.869 666.931 C 441.869 655.917 440.457 645.577 437.587 635.931 C 434.718 626.285 430.523 617.882 425.056 610.712 C 425.056 610.712 443.15 591.65 443.15 591.65 C 443.15 591.65 408.712 601.712 408.712 601.712 C 411.089 605.884 412.882 610.447 414.087 615.4 C 415.293 620.353 415.9 625.667 415.9 631.337 C 415.9 639.55 414.646 646.364 412.15 651.806 C 409.654 657.248 406.544 659.963 402.775 659.962 C 398.666 659.963 395.227 657.394 392.494 652.212 C 389.76 647.031 388.4 640.534 388.4 632.712 C 388.4 624.761 389.76 616.588 392.494 608.212 C 395.227 599.837 399.125 591.981 404.15 584.681 C 404.15 584.681 360.837 595.837 360.837 595.837 C 360.837 595.837 381.931 601.119 381.931 601.119 C 374.359 610.374 368.726 620.222 365.025 630.65 C 361.324 641.078 359.462 652.311 359.462 664.369 C 359.462 673.363 360.419 682.172 362.337 690.775 C 364.256 699.378 366.994 707.116 370.525 714.025 C 374.124 720.868 378.165 726.154 382.681 729.869 C 385.211 731.95 387.796 733.422 390.4 734.337 C 390.4 734.337 318.837 734.337 318.837 734.337 C 323.542 732.819 328.086 729.965 332.462 725.806 C 339.355 719.256 344.774 710.449 348.712 699.369 C 350.58 694.155 351.983 688.494 352.9 682.4 C 353.817 676.306 354.275 669.752 354.275 662.712 C 354.275 650.068 352.737 638.026 349.681 626.587 C 346.625 615.149 342.504 606.053 337.275 599.275 C 334.355 595.495 331.13 592.635 327.65 590.712 C 324.17 588.79 320.438 587.838 316.431 587.837 C 310.048 587.838 303.942 590.089 298.119 594.619 C 292.295 599.149 287.186 605.589 282.806 613.931 C 279.241 620.644 276.518 628.211 274.65 636.619 C 272.782 645.027 271.869 653.892 271.869 663.212 C 271.869 675.4 273.349 686.749 276.337 697.275 C 279.326 707.801 283.53 716.58 288.962 723.619 C 292.018 727.594 295.377 730.598 298.994 732.619 C 300.24 733.315 301.502 733.881 302.806 734.337 C 302.806 734.337 240.337 734.337 240.337 734.337 C 240.337 734.337 267.494 729.869 267.494 729.869 C 267.494 729.869 255.619 722.244 255.619 722.244 C 259.625 713.119 262.63 704.196 264.65 695.462 C 266.67 686.729 267.681 678.209 267.681 669.931 C 267.681 658.069 265.591 648.164 261.431 640.212 C 257.272 632.261 252.14 628.306 245.994 628.306 C 241.308 628.306 236.898 630.559 232.806 635.056 C 228.715 639.553 224.848 646.398 221.181 655.587 C 221.181 655.587 230.462 595.462 230.462 595.462 C 230.462 595.462 239.931 585.681 239.931 585.681 C 239.931 585.681 215.212 588.712 215.212 588.712 C 215.212 588.712 215.212 550.525 215.212 550.525 C 215.908 552.227 216.646 553.882 217.462 555.462 C 219.625 559.745 222.058 562.993 224.744 565.244 C 227.43 567.494 230.179 568.619 233.025 568.619 C 237.35 568.619 241.521 566.676 245.494 562.744 C 249.466 558.811 253.099 553.072 256.4 545.556 C 256.4 545.556 257.775 564.181 257.775 564.181 C 257.775 564.181 261.431 518.681 261.431 518.681 C 259.041 521.303 256.815 523.267 254.744 524.556 C 252.672 525.845 250.687 526.494 248.775 526.494 C 245.656 526.494 243.065 524.692 240.994 521.087 C 238.922 517.483 237.869 513.012 237.869 507.681 C 237.869 502.656 238.707 498.605 240.369 495.525 C 242.03 492.445 244.231 490.9 246.962 490.9 C 249.33 490.9 251.539 491.987 253.587 494.15 C 255.636 496.313 257.429 499.487 258.931 503.681 C 258.931 503.681 255.431 467.837 255.431 467.837 C 255.431 467.837 253.462 478.712 253.462 478.712 C 251.209 475.042 248.785 472.317 246.212 470.525 C 243.64 468.734 240.851 467.838 237.869 467.837 C 234.591 467.838 231.555 468.589 228.744 470.119 C 225.932 471.648 223.304 473.954 220.869 477.056 C 218.678 479.868 216.802 483.194 215.212 486.994 C 215.212 486.994 215.212 475.587 215.212 475.587 C 215.212 475.587 215.212 464.994 215.212 464.994 C 215.212 464.994 204.619 464.994 204.619 464.994 C 204.619 464.994 157.744 464.994 157.744 464.994 C 157.744 464.994 213.837 424.994 213.837 424.994 C 213.837 424.994 218.275 421.837 218.275 421.837 C 218.275 421.837 218.275 416.369 218.275 416.369 C 218.275 416.369 218.275 366.556 218.275 366.556 C 218.275 366.556 218.275 356.025 218.275 356.025 C 218.275 356.025 261.431 325.244 261.431 325.244 C 261.431 325.244 301.431 353.775 301.431 353.775 C 301.431 353.775 307.587 358.181 307.587 358.181 C 307.587 358.181 313.744 353.775 313.744 353.775 C 313.744 353.775 396.056 295.087 396.056 295.087 Z M 472.65 626.931 C 465.18 626.931 459.235 629.964 454.837 636.025 C 450.44 642.086 448.244 650.258 448.244 660.556 C 448.244 667.595 449.495 673.083 452.025 676.994 C 454.555 680.904 458.721 683.763 464.494 685.587 C 469.655 687.152 472.917 688.855 474.275 690.712 C 475.633 692.57 476.306 695.458 476.306 699.369 C 476.306 703.149 475.659 706.123 474.369 708.306 C 473.078 710.49 471.354 711.587 469.181 711.587 C 466.567 711.587 463.694 710.144 460.587 707.244 C 457.481 704.343 454.259 700.07 450.931 694.4 C 450.931 694.4 444.369 733.775 444.369 733.775 C 444.369 733.775 452.837 719.4 452.837 719.4 C 457.354 724.353 461.649 728.051 465.775 730.462 C 469.901 732.874 473.984 734.087 478.025 734.087 C 486.955 734.087 494.166 730.708 499.65 723.962 C 505.134 717.217 507.9 708.495 507.9 697.806 C 507.9 689.203 506.185 682.764 502.806 678.462 C 499.428 674.161 493.998 671.503 486.494 670.525 C 485.984 670.46 485.285 670.374 484.369 670.244 C 475.167 669.071 470.556 665.576 470.556 659.775 C 470.556 656.581 471.135 654.069 472.306 652.244 C 473.478 650.419 475.107 649.525 477.212 649.525 C 479.521 649.525 481.881 650.592 484.275 652.775 C 486.669 654.958 489.189 658.338 491.837 662.9 C 491.837 662.9 501.525 627.525 501.525 627.525 C 501.525 627.525 491.931 639.337 491.931 639.337 C 489.317 634.971 486.516 631.824 483.494 629.869 C 480.472 627.914 476.86 626.931 472.65 626.931 Z M 236.712 687.931 C 238.954 687.931 240.718 689.519 242.025 692.712 C 243.332 695.906 243.994 700.209 243.994 705.619 C 243.994 710.963 243.429 716.104 242.275 721.025 C 241.168 725.744 239.538 730.188 237.4 734.337 C 237.4 734.337 215.212 734.337 215.212 734.337 C 215.212 734.337 215.212 732.525 215.212 732.525 C 215.212 732.525 230.15 729.181 230.15 729.181 C 229.131 726.574 228.361 723.746 227.869 720.65 C 227.376 717.554 227.15 714.261 227.15 710.806 C 227.15 704.289 228.081 698.861 229.931 694.494 C 231.782 690.127 234.03 687.931 236.712 687.931 Z" style="fill:white;fill-opacity:1;stroke:none;stroke-width:21.20000076;stroke-miterlimit:4;stroke-dasharray:none;stroke-opacity:1"/>
      </g>
      <g id="g3094">
        <path id="rect1872" d="M 396.056 269.056 C 396.056 269.056 389.9 273.462 389.9 273.462 C 389.9 273.462 307.587 332.15 307.587 332.15 C 307.587 332.15 267.587 303.619 267.587 303.619 C 267.587 303.619 261.431 299.212 261.431 299.212 C 261.431 299.212 255.275 303.619 255.275 303.619 C 255.275 303.619 179.087 357.931 179.087 357.931 C 179.087 357.931 152.119 377.15 152.119 377.15 C 152.119 377.15 185.244 377.15 185.244 377.15 C 185.244 377.15 197.087 377.15 197.087 377.15 C 197.087 377.15 197.087 410.9 197.087 410.9 C 197.087 410.9 118.463 466.962 118.463 466.962 C 118.463 466.962 91.4938 486.181 91.4938 486.181 C 91.4938 486.181 124.619 486.181 124.619 486.181 C 124.619 486.181 194.025 486.181 194.025 486.181 C 194.025 486.181 194.025 744.931 194.025 744.931 C 194.025 744.931 194.025 755.525 194.025 755.525 C 194.025 755.525 204.619 755.525 204.619 755.525 C 204.619 755.525 587.463 755.525 587.463 755.525 C 587.463 755.525 598.056 755.525 598.056 755.525 C 598.056 755.525 598.056 744.931 598.056 744.931 C 598.056 744.931 598.056 486.181 598.056 486.181 C 598.056 486.181 667.463 486.181 667.463 486.181 C 667.463 486.181 700.588 486.181 700.588 486.181 C 700.588 486.181 673.619 466.962 673.619 466.962 C 673.619 466.962 402.212 273.462 402.212 273.462 C 402.212 273.462 396.056 269.056 396.056 269.056 Z M 396.056 295.087 C 396.056 295.087 634.338 464.994 634.338 464.994 C 634.338 464.994 587.463 464.994 587.463 464.994 C 587.463 464.994 576.869 464.994 576.869 464.994 C 576.869 464.994 579.786 735.705 579.786 735.705 C 579.786 735.705 203.734 730.598 207.351 732.619 C 208.597 733.315 207.355 465.678 207.355 465.678 C 207.355 465.678 157.744 464.994 157.744 464.994 C 157.744 464.994 213.837 424.994 213.837 424.994 C 213.837 424.994 218.275 421.837 218.275 421.837 C 218.275 421.837 218.275 416.369 218.275 416.369 C 218.275 416.369 218.275 366.556 218.275 366.556 C 218.275 366.556 218.275 356.025 218.275 356.025 C 218.275 356.025 261.431 325.244 261.431 325.244 C 261.431 325.244 301.431 353.775 301.431 353.775 C 301.431 353.775 307.587 358.181 307.587 358.181 C 307.587 358.181 313.744 353.775 313.744 353.775 C 313.744 353.775 396.056 295.087 396.056 295.087 Z" style="fill: url(#gradient-47); fill-opacity: 1; stroke: rgb(127, 40, 189); stroke-width: 21.2px; stroke-miterlimit: 4; stroke-dasharray: none; stroke-opacity: 0.3; stroke-linecap: butt; stroke-linejoin: miter;"/>
      </g>
    </g>
    <g transform="matrix(1, 0, 0, 1, -65.6395034790039, 455.9974365234374)">
      <path id="path-1" d=" M 234.16299438476562 42.49700164794922 C 221.49600219726562 42.49700164794922 212.40499877929688 33.05400085449219 212.40499877929688 21.384000778198242 C 212.40499877929688 21.384000778198242 212.40499877929688 21.266000747680664 212.40499877929688 21.266000747680664 C 212.40499877929688 9.595999717712402 221.1820068359375 -1.0922999382019043 233.8489990234375 -1.0922999382019043 C 246.51600646972656 -1.0922999382019043 256.0369873046875 9.477999687194824 256.0369873046875 21.14900016784668 C 256.0369873046875 21.14900016784668 256.0369873046875 21.266000747680664 256.0369873046875 21.266000747680664 C 256.0379943847656 32.93600082397461 246.83200073242188 42.49700164794922 234.16299438476562 42.49700164794922 Z M 246.5970001220703 21.266000747680664 C 246.5970001220703 14.227999687194824 241.43600463867188 8.36400032043457 234.16299438476562 8.36400032043457 C 226.89199829101562 8.36400032043457 221.84800720214844 14.111000061035156 221.84800720214844 21.14900016784668 C 221.84800720214844 21.14900016784668 221.84800720214844 21.266000747680664 221.84800720214844 21.266000747680664 C 221.84800720214844 28.304000854492188 227.00900268554688 34.16899871826172 234.281005859375 34.16899871826172 C 241.55299377441406 34.16899871826172 246.5970001220703 28.42099952697754 246.5970001220703 21.382999420166016 C 246.5970001220703 21.382999420166016 246.5970001220703 21.266000747680664 246.5970001220703 21.266000747680664 Z" transform="matrix(0.8852919936180115, -0.007008460350334646, 0, 1.016070008277893, 138.21971626281737, -147.76105257670082)" style="fill: url(#gradient-32);"/>
      <path id="path-2" d=" M 281.0840148925781 1.0090500116348267 C 281.0840148925781 1.0090500116348267 281.7860107421875 41.79199981689453 281.7860107421875 41.79199981689453 C 281.7860107421875 41.79199981689453 272.8710021972656 41.79199981689453 272.8710021972656 41.79199981689453 C 272.8710021972656 41.79199981689453 272.8710021972656 0.7390000224113464 272.8710021972656 0.7390000224113464 C 272.8710021972656 0.7390000224113464 281.0840148925781 1.0090500116348267 281.0840148925781 1.0090500116348267 Z" transform="matrix(1.0590875148773193, 0, 0, 0.9472209811210631, 36.601208877563465, -147.92316195170088)" style="fill: url(#gradient-33);"/>
    </g>
    <path id="path-3" d=" M 37.57600021362305 41.79199981689453 C 37.57600021362305 41.79199981689453 37.57600021362305 14.992000579833984 37.57600021362305 14.992000579833984 C 37.57600021362305 14.992000579833984 26.023000717163086 32.527000427246094 26.023000717163086 32.527000427246094 C 26.023000717163086 32.527000427246094 25.788000106811523 32.527000427246094 25.788000106811523 32.527000427246094 C 25.788000106811523 32.527000427246094 14.352001190185547 15.166999816894531 14.352001190185547 15.166999816894531 C 14.352001190185547 15.166999816894531 14.352001190185547 41.79199981689453 14.352001190185547 41.79199981689453 C 14.352001190185547 41.79199981689453 5.495999813079834 41.79199981689453 5.495999813079834 41.79199981689453 C 5.495999813079834 41.79199981689453 5.495999813079834 0.7390000224113464 5.495999813079834 0.7390000224113464 C 5.495999813079834 0.7390000224113464 15.230999946594238 0.7390000224113464 15.230999946594238 0.7390000224113464 C 15.230999946594238 0.7390000224113464 26.022998809814453 18.099000930786133 26.022998809814453 18.099000930786133 C 26.022998809814453 18.099000930786133 36.81399917602539 0.7390000224113464 36.81399917602539 0.7390000224113464 C 36.81399917602539 0.7390000224113464 46.54999923706055 0.7390000224113464 46.54999923706055 0.7390000224113464 C 46.54999923706055 0.7390000224113464 46.54999923706055 41.79099655151367 46.54999923706055 41.79099655151367 C 46.54999923706055 41.79099655151367 37.57600021362305 41.79099655151367 37.57600021362305 41.79099655151367 C 37.57600021362305 41.79099655151367 37.57600021362305 41.79199981689453 37.57600021362305 41.79199981689453 Z" transform="matrix(0.8885936141014099, 0, 0, -0.8289656043052673, 309.8149719238281, 356.5364685058594)" style="fill: url(#gradient-34);"/>
    <g transform="matrix(1, 0, 0, 1, -123.17119598388672, 206.9544677734374)">
      <path id="path-5" d=" M 234.16299438476562 42.49700164794922 C 221.49600219726562 42.49700164794922 212.40499877929688 33.05400085449219 212.40499877929688 21.384000778198242 C 212.40499877929688 21.384000778198242 212.40499877929688 21.266000747680664 212.40499877929688 21.266000747680664 C 212.40499877929688 9.596000671386719 221.6129913330078 0.036001235246658325 234.27999877929688 0.036001235246658325 C 246.94699096679688 0.036001235246658325 256.0369873046875 9.478001594543457 256.0369873046875 21.149002075195312 C 256.0369873046875 21.149002075195312 256.0369873046875 21.266002655029297 256.0369873046875 21.266002655029297 C 256.0379943847656 32.93600082397461 246.83200073242188 42.49700164794922 234.16299438476562 42.49700164794922 Z M 246.5970001220703 21.266000747680664 C 246.5970001220703 14.22800064086914 241.43600463867188 8.36400032043457 234.16299438476562 8.36400032043457 C 226.89199829101562 8.36400032043457 221.84800720214844 14.111000061035156 221.84800720214844 21.14900016784668 C 221.84800720214844 21.14900016784668 221.84800720214844 21.266000747680664 221.84800720214844 21.266000747680664 C 221.84800720214844 28.304000854492188 227.00900268554688 34.16899871826172 234.281005859375 34.16899871826172 C 241.55299377441406 34.16899871826172 246.5970001220703 28.42099952697754 246.5970001220703 21.382999420166016 C 246.5970001220703 21.382999420166016 246.5970001220703 21.266000747680664 246.5970001220703 21.266000747680664 Z" transform="matrix(0.7379462718963623, 0, 0, 0.7486655712127686, 89.80835456848143, 14.090677769978868)" style="fill: url(#gradient-35);"/>
      <path id="path-6" d=" M 281.46600341796875 1.0090500116348267 C 281.46600341796875 1.0090500116348267 281.7860107421875 41.79199981689453 281.7860107421875 41.79199981689453 C 281.7860107421875 41.79199981689453 272.8710021972656 41.79199981689453 272.8710021972656 41.79199981689453 C 272.8710021972656 41.79199981689453 272.8710021972656 0.7390000224113464 272.8710021972656 0.7390000224113464 C 272.8710021972656 0.7390000224113464 281.46600341796875 1.0090500116348267 281.46600341796875 1.0090500116348267 Z" transform="matrix(1, 0, 0, 1, -28.45828323364259, 17.512850316365586)" style="fill: rgb(20, 91, 29);"/>
    </g>
    <path id="path-7" d=" M 65.78600311279297 41.79199981689453 C 65.78600311279297 41.79199981689453 65.78600311279297 0.7390000224113464 65.78600311279297 0.7390000224113464 C 65.78600311279297 0.7390000224113464 96.75199890136719 0.7390000224113464 96.75199890136719 0.7390000224113464 C 96.75199890136719 0.7390000224113464 96.75199890136719 8.77400016784668 96.75199890136719 8.77400016784668 C 96.75199890136719 8.77400016784668 74.75900268554688 8.77400016784668 74.75900268554688 8.77400016784668 C 74.75900268554688 8.77400016784668 74.75900268554688 17.10300064086914 74.75900268554688 17.10300064086914 C 74.75900268554688 17.10300064086914 94.11299896240234 17.10300064086914 94.11299896240234 17.10300064086914 C 94.11299896240234 17.10300064086914 94.11299896240234 25.135000228881836 94.11299896240234 25.135000228881836 C 94.11299896240234 25.135000228881836 74.75900268554688 25.135000228881836 74.75900268554688 25.135000228881836 C 74.75900268554688 25.135000228881836 74.75900268554688 33.75600051879883 74.75900268554688 33.75600051879883 C 74.75900268554688 33.75600051879883 97.04600524902344 33.75600051879883 97.04600524902344 33.75600051879883 C 97.04600524902344 33.75600051879883 97.04600524902344 41.79100036621094 97.04600524902344 41.79100036621094 C 97.04600524902344 41.79100036621094 65.78600311279297 41.79100036621094 65.78600311279297 41.79100036621094 C 65.78600311279297 41.79100036621094 65.78600311279297 41.79199981689453 65.78600311279297 41.79199981689453 Z" transform="matrix(0.9024595022201538, 0, 0, 0.832886517047882, 102.35201263427734, 243.7154998779297)" style="fill: url(#gradient-36);"/>
    <path id="path-8" d="M 133.642 9.067 C 133.642 9.067 133.642 41.792 133.642 41.792 C 133.642 41.792 124.61 41.792 124.61 41.792 C 124.61 41.792 124.61 9.067 124.61 9.067 C 124.61 9.067 112.118 9.067 112.118 9.067 C 112.118 9.067 112.118 0.739 112.118 0.739 C 112.118 0.739 146.134 0.739 146.134 0.739 C 146.134 0.739 146.134 9.067 146.134 9.067 C 146.134 9.067 133.642 9.067 133.642 9.067 C 133.642 9.067 133.642 9.067 133.642 9.067 Z" transform="matrix(1, 0, 0, 1, 87.06611633300781, 227.2731475830078)" style="fill: url(#gradient-37);"/>
    <path id="path-9" d=" M 133.64199829101562 8.685859680175781 C 133.64199829101562 8.685859680175781 133.64199829101562 41.79199981689453 133.64199829101562 41.79199981689453 C 133.64199829101562 41.79199981689453 124.61000061035156 41.79199981689453 124.61000061035156 41.79199981689453 C 124.61000061035156 41.79199981689453 124.61000061035156 9.067000389099121 124.61000061035156 9.067000389099121 C 124.61000061035156 9.067000389099121 133.64199829101562 9.067000389099121 133.64199829101562 9.067000389099121 C 133.64199829101562 9.067000389099121 133.64199829101562 8.685859680175781 133.64199829101562 8.685859680175781 Z" transform="matrix(1, 0, 0, 1, 118.83905029296875, 234.72279357910156)" style="fill: url(#gradient-38);"/>
    <path id="path-10" d=" M 133.64199829101562 9.067000389099121 C 133.64199829101562 9.067000389099121 133.64199829101562 41.79199981689453 133.64199829101562 41.79199981689453 C 133.64199829101562 41.79199981689453 124.61000061035156 41.79199981689453 124.61000061035156 41.79199981689453 C 124.61000061035156 41.79199981689453 124.61000061035156 9.067000389099121 124.61000061035156 9.067000389099121 C 124.61000061035156 9.067000389099121 112.11799621582031 9.067000389099121 112.11799621582031 9.067000389099121 C 112.11799621582031 9.067000389099121 112.11799621582031 0.7390000224113464 112.11799621582031 0.7390000224113464 C 112.11799621582031 0.7390000224113464 146.13400268554688 0.7390000224113464 146.13400268554688 0.7390000224113464 C 146.13400268554688 0.7390000224113464 146.13400268554688 9.067000389099121 146.13400268554688 9.067000389099121 C 146.13400268554688 9.067000389099121 133.64199829101562 9.067000389099121 133.64199829101562 9.067000389099121 C 133.64199829101562 9.067000389099121 133.64199829101562 9.067000389099121 133.64199829101562 9.067000389099121 Z" transform="matrix(1, 0, 0, 1, 146.905044555664, 229.52516174316406)" style="fill: url(#gradient-39);"/>
    <path id="path-11" d=" M 65.78600311279297 41.79199981689453 C 65.78600311279297 41.79199981689453 65.78600311279297 0.7390000224113464 65.78600311279297 0.7390000224113464 C 65.78600311279297 0.7390000224113464 96.75199890136719 0.7390000224113464 96.75199890136719 0.7390000224113464 C 96.75199890136719 0.7390000224113464 96.75199890136719 8.77400016784668 96.75199890136719 8.77400016784668 C 96.75199890136719 8.77400016784668 74.75900268554688 8.77400016784668 74.75900268554688 8.77400016784668 C 74.75900268554688 8.77400016784668 74.75900268554688 17.10300064086914 74.75900268554688 17.10300064086914 C 74.75900268554688 17.10300064086914 94.11299896240234 17.10300064086914 94.11299896240234 17.10300064086914 C 94.11299896240234 17.10300064086914 94.11299896240234 25.135000228881836 94.11299896240234 25.135000228881836 C 94.11299896240234 25.135000228881836 74.75900268554688 25.135000228881836 74.75900268554688 25.135000228881836 C 74.75900268554688 25.135000228881836 74.75900268554688 33.75600051879883 74.75900268554688 33.75600051879883 C 74.75900268554688 33.75600051879883 97.04600524902344 33.75600051879883 97.04600524902344 33.75600051879883 C 97.04600524902344 33.75600051879883 97.04600524902344 41.79100036621094 97.04600524902344 41.79100036621094 C 97.04600524902344 41.79100036621094 65.78600311279297 41.79100036621094 65.78600311279297 41.79100036621094 C 65.78600311279297 41.79100036621094 65.78600311279297 41.79199981689453 65.78600311279297 41.79199981689453 Z" transform="matrix(1, 0, 0, 1, 237.95899963378906, 231.67665100097645)" style="fill: url(#gradient-40);"/>
    <path id="path-12" d=" M 446.93798828125 41.79199981689453 C 446.93798828125 41.79199981689453 446.93798828125 0.7390000224113464 446.93798828125 0.7390000224113464 C 446.93798828125 0.7390000224113464 477.90399169921875 0.7390000224113464 477.90399169921875 0.7390000224113464 C 477.90399169921875 0.7390000224113464 477.90399169921875 8.77400016784668 477.90399169921875 8.77400016784668 C 477.90399169921875 8.77400016784668 455.9109802246094 8.77400016784668 455.9109802246094 8.77400016784668 C 455.9109802246094 8.77400016784668 455.9109802246094 17.10300064086914 455.9109802246094 17.10300064086914 C 455.9109802246094 17.10300064086914 475.2649841308594 17.10300064086914 475.2649841308594 17.10300064086914 C 475.2649841308594 17.10300064086914 475.2649841308594 25.135000228881836 475.2649841308594 25.135000228881836 C 475.2649841308594 25.135000228881836 455.9109802246094 25.135000228881836 455.9109802246094 25.135000228881836 C 455.9109802246094 25.135000228881836 455.9109802246094 33.75600051879883 455.9109802246094 33.75600051879883 C 455.9109802246094 33.75600051879883 478.1969909667969 33.75600051879883 478.1969909667969 33.75600051879883 C 478.1969909667969 33.75600051879883 478.1969909667969 41.79100036621094 478.1969909667969 41.79100036621094 C 478.1969909667969 41.79100036621094 446.93798828125 41.79100036621094 446.93798828125 41.79100036621094 C 446.93798828125 41.79100036621094 446.93798828125 41.79199981689453 446.93798828125 41.79199981689453 Z" transform="matrix(1, 0, 0, 1, -82.26286315917972, 311.6642761230469)" style="fill: url(#gradient-41);"/>
    <path id="path-13" d=" M 65.78600311279297 41.79199981689453 C 65.78600311279297 41.79199981689453 65.78600311279297 0.7390000224113464 65.78600311279297 0.7390000224113464 C 65.78600311279297 0.7390000224113464 73.99669647216797 0.7700669765472412 73.99669647216797 0.7700669765472412 C 73.99669647216797 0.7700669765472412 74.75900268554688 33.75600051879883 74.75900268554688 33.75600051879883 C 74.75900268554688 33.75600051879883 97.0459976196289 33.75600051879883 97.0459976196289 33.75600051879883 C 97.0459976196289 33.75600051879883 97.0459976196289 41.79100036621094 97.0459976196289 41.79100036621094 C 97.0459976196289 41.79100036621094 65.78600311279297 41.79100036621094 65.78600311279297 41.79100036621094 C 65.78600311279297 41.79100036621094 65.78600311279297 41.79199981689453 65.78600311279297 41.79199981689453 Z" transform="matrix(1, 0, 0, 1, 350.8942565917969, 325.108642578125)" style="fill: url(#gradient-42);"/>
    <path id="path-14" d=" M 65.78600311279297 41.79199981689453 C 65.78600311279297 41.79199981689453 65.78600311279297 0.7390000224113464 65.78600311279297 0.7390000224113464 C 65.78600311279297 0.7390000224113464 73.99669647216797 0.7700669765472412 73.99669647216797 0.7700669765472412 C 73.99669647216797 0.7700669765472412 74.75900268554688 33.75600051879883 74.75900268554688 33.75600051879883 C 74.75900268554688 33.75600051879883 97.0459976196289 33.75600051879883 97.0459976196289 33.75600051879883 C 97.0459976196289 33.75600051879883 97.0459976196289 41.79100036621094 97.0459976196289 41.79100036621094 C 97.0459976196289 41.79100036621094 65.78600311279297 41.79100036621094 65.78600311279297 41.79100036621094 C 65.78600311279297 41.79100036621094 65.78600311279297 41.79199981689453 65.78600311279297 41.79199981689453 Z" transform="matrix(1, 0, 0, 1, 392.9564514160156, 313.84661865234375)" style="fill: url(#gradient-43);"/>
    <g transform="matrix(1, 0, 0, 1, 26.48762321472168, -332.06719970703125)">
      <g transform="matrix(5.968835376764651e-17, 0.9747849106788636, -0.9959351420402527, 6.098344067421874e-17, 475.9631652832031, -13.263378143310547)"/>
      <g transform="matrix(-0.6469888091087341, 9.577183569206061e-25, -6.588800966525194e-25, 0.6138216853141785, 368.45672607421875, 46.47897720336915)">
        <g transform="matrix(1, 0, 0, 1, 58.515663146972656, -14.134730339050293)"/>
      </g>
      <g transform="matrix(-5.660039589675745e-17, 0.9243545532226562, 0.8089432716369629, 4.953349082997397e-17, -78.80422973632812, -55.01565170288087)">
        <g transform="matrix(1, 0, 0, 1, 58.515663146972656, -14.134730339050293)"/>
      </g>
    </g>
  </g>
</svg>